HIERARCHY
ROOT Hips
{
	OFFSET 55.310501 45.591206 43.872097
	CHANNELS 6 Xposition Yposition Zposition Zrotation Xrotation Yrotation
	JOINT Chest
	{
		OFFSET -0.153500 1.163101 7.852402
		CHANNELS 6 Xposition Yposition Zposition Zrotation Xrotation Yrotation
		JOINT Chest2
		{
			OFFSET 0.000000 0.000000 3.343300
			CHANNELS 6 Xposition Yposition Zposition Zrotation Xrotation Yrotation
			JOINT Neck
			{
				OFFSET 0.000000 0.000000 7.785500
				CHANNELS 6 Xposition Yposition Zposition Zrotation Xrotation Yrotation
				JOINT Head
				{
					OFFSET 0.000000 0.000000 2.173901
					CHANNELS 6 Xposition Yposition Zposition Zrotation Xrotation Yrotation
					End Site
					{
						OFFSET 0.000000 0.000000 10.528198
					}
				}
			}
			JOINT LeftCollar
			{
				OFFSET 2.676300 -1.652401 4.938301
				CHANNELS 6 Xposition Yposition Zposition Zrotation Xrotation Yrotation
				JOINT LeftShoulder
				{
					OFFSET 4.299000 0.000000 0.000000
					CHANNELS 6 Xposition Yposition Zposition Zrotation Xrotation Yrotation
					JOINT LeftElbow
					{
						OFFSET 0.000000 0.000000 -10.245102
						CHANNELS 6 Xposition Yposition Zposition Zrotation Xrotation Yrotation
						JOINT LeftWrist
						{
							OFFSET 0.000000 0.000000 -12.703300
							CHANNELS 6 Xposition Yposition Zposition Zrotation Xrotation Yrotation
							End Site
							{
								OFFSET 0.000000 0.000000 -2.173901
							}
						}
					}
				}
			}
			JOINT RightCollar
			{
				OFFSET -2.534599 -1.686401 5.195000
				CHANNELS 6 Xposition Yposition Zposition Zrotation Xrotation Yrotation
				JOINT RightShoulder
				{
					OFFSET -4.144100 0.000000 0.000000
					CHANNELS 6 Xposition Yposition Zposition Zrotation Xrotation Yrotation
					JOINT RightElbow
					{
						OFFSET 0.000000 0.000000 -10.116501
						CHANNELS 6 Xposition Yposition Zposition Zrotation Xrotation Yrotation
						JOINT RightWrist
						{
							OFFSET 0.000000 0.000000 -12.937801
							CHANNELS 6 Xposition Yposition Zposition Zrotation Xrotation Yrotation
							End Site
							{
								OFFSET 0.000000 0.000000 -2.173901
							}
						}
					}
				}
			}
		}
	}
	JOINT LeftHip
	{
		OFFSET 2.175598 0.064499 -2.662899
		CHANNELS 6 Xposition Yposition Zposition Zrotation Xrotation Yrotation
		JOINT LeftKnee
		{
			OFFSET 0.000000 -0.000004 -18.585800
			CHANNELS 6 Xposition Yposition Zposition Zrotation Xrotation Yrotation
			JOINT LeftAnkle
			{
				OFFSET 0.000000 0.000000 -18.979500
				CHANNELS 6 Xposition Yposition Zposition Zrotation Xrotation Yrotation
				End Site
				{
					OFFSET 0.000000 -9.264000 0.000000
				}
			}
		}
	}
	JOINT RightHip
	{
		OFFSET -2.092400 -0.058102 -2.581200
		CHANNELS 6 Xposition Yposition Zposition Zrotation Xrotation Yrotation
		JOINT RightKnee
		{
			OFFSET 0.000000 -0.000004 -18.665001
			CHANNELS 6 Xposition Yposition Zposition Zrotation Xrotation Yrotation
			JOINT RightAnkle
			{
				OFFSET 0.000000 0.000000 -18.566601
				CHANNELS 6 Xposition Yposition Zposition Zrotation Xrotation Yrotation
				End Site
				{
					OFFSET 0.000000 -8.497601 0.000000
				}
			}
		}
	}
}
MOTION
Frames: 9
Frame Time: 0.041667
66.098595 -26.266697 39.874493 3090.901459 -5.146601 9.281177 -0.153509 1.163113 7.852402 6.524749 -6.928521 6.564174 0.000004 0.000001 3.343302 -4.301047 -2.787136 0.082247 0.000002 0.000004 7.785497 -29.217927 -27.877800 5.961990 0.000011 0.000006 2.173909 -7.916023 -12.415663 -8.019985 2.676291 -1.652400 4.938302 11.089505 -3.595482 7.400584 4.299007 -0.000021 0.000005 -413.824824 -9.058567 238.294918 0.000003 0.000009 -10.245104 -56.012790 722.358621 279.555271 -0.000007 0.000002 -12.703293 1225.150156 -174.360878 552.376413 -2.534595 -1.686405 5.194995 9.647518 13.020064 22.884329 -4.144097 0.000011 -0.000006 174.505555 143.408742 -113.376871 0.000004 0.000006 -10.116495 -385.661113 -8.779165 -291.839722 0.000001 0.000004 -12.937809 -1099.133931 9.556471 10.327282 2.175597 0.064496 -2.662897 -979.955217 -31.804086 39.986386 -0.000002 -0.000003 -18.585800 355.176257 -181.636068 -116.438961 0.000008 -0.000002 -18.979498 763.241292 -8.283885 -699.757798 -2.092398 -0.058097 -2.581207 1480.558468 26.602018 0.170452 -0.000004 0.000005 -18.665005 -1144.173510 41.303032 -1095.171765 -0.000008 -0.000007 -18.566601 700.964993 -5.330219 -57.560606
66.104897 -26.219601 39.866791 3091.025823 -5.084758 9.255040 -0.153497 1.163104 7.852405 6.364545 -6.990422 6.571169 -0.000001 -0.000001 3.343309 -4.145059 -2.798104 0.078403 -0.000006 0.000015 7.785501 -29.192505 -27.900015 6.210795 -0.000017 0.000007 2.173911 -7.793788 -12.347066 -8.039854 2.676288 -1.652387 4.938299 11.385286 -3.955547 7.335667 4.299013 -0.000008 -0.000011 -414.070274 -9.026320 238.572661 0.000003 0.000005 -10.245116 -56.048126 722.109073 279.692148 0.000001 0.000009 -12.703304 1225.107536 -174.367326 552.348109 -2.534604 -1.686389 5.194998 9.553628 12.953518 23.236302 -4.144104 0.000013 -0.000004 174.484477 143.673275 -113.502110 0.000007 0.000000 -10.116505 -385.244307 -8.693600 -291.984850 0.000003 0.000000 -12.937801 -1099.311188 9.483947 10.288895 2.175601 0.064496 -2.662899 -980.124933 -31.807088 39.953980 -0.000002 -0.000006 -18.585794 354.810132 -180.958417 -116.500720 0.000002 -0.000001 -18.979492 764.109272 -8.400964 -698.968993 -2.092394 -0.058103 -2.581192 1480.663489 26.638475 0.015645 -0.000008 0.000001 -18.665009 -1144.397103 41.236973 -1095.184442 -0.000010 -0.000017 -18.566601 700.949420 -5.331581 -57.519475
66.107597 -26.165699 39.856892 3091.165924 -4.991192 9.230093 -0.153497 1.163100 7.852401 6.293387 -7.077901 6.679994 -0.000003 -0.000000 3.343306 -4.075205 -2.740488 0.076605 0.000011 0.000000 7.785503 -28.144658 -27.880508 6.006713 0.000001 0.000010 2.173909 -8.497347 -12.412791 -7.203798 2.676297 -1.652404 4.938304 11.646907 -4.297380 7.103346 4.299006 0.000004 -0.000005 -414.223161 -9.093202 238.895592 -0.000003 -0.000002 -10.245108 -56.038198 721.993670 279.748976 0.000000 0.000004 -12.703294 1225.215289 -174.367831 552.310243 -2.534595 -1.686400 5.195001 9.411821 12.645037 23.523836 -4.144104 0.000008 0.000006 174.774719 143.578021 -113.750776 0.000006 0.000000 -10.116500 -385.197479 -8.927776 -292.116426 -0.000003 0.000004 -12.937796 -1099.224417 9.632627 10.455497 2.175601 0.064499 -2.662901 -979.914017 -31.613886 40.146804 0.000001 0.000005 -18.585804 354.412779 -180.665457 -116.503028 -0.000002 -0.000013 -18.979500 764.504986 -8.353601 -698.750427 -2.092381 -0.058107 -2.581207 1480.697695 26.643209 -0.089651 -0.000005 -0.000006 -18.665007 -1144.621789 41.220328 -1095.160618 -0.000001 -0.000017 -18.566599 700.961168 -5.322936 -57.461883
66.111885 -26.111294 39.843399 3091.350831 -4.950732 9.257182 -0.153503 1.163101 7.852406 6.071093 -7.062425 6.647191 -0.000007 0.000001 3.343301 -3.917497 -2.804203 0.072250 -0.000006 0.000004 7.785494 -27.875675 -27.875865 6.167614 -0.000007 0.000010 2.173912 -8.452774 -12.328958 -7.501285 2.676289 -1.652405 4.938296 11.912829 -4.599990 7.156741 4.299012 -0.000002 -0.000005 -414.405499 -9.055212 239.120934 -0.000005 0.000002 -10.245105 -56.131198 721.918429 279.789410 0.000002 0.000007 -12.703301 1225.363258 -174.369525 552.272704 -2.534601 -1.686400 5.194995 9.316911 12.611955 23.712518 -4.144100 0.000008 -0.000002 174.845726 143.654178 -113.732294 0.000004 0.000004 -10.116501 -385.094617 -8.749588 -292.335430 -0.000005 0.000004 -12.937797 -1099.343098 9.650482 10.294141 2.175599 0.064492 -2.662901 -979.663650 -31.427364 40.372989 0.000000 -0.000003 -18.585789 353.877920 -180.280494 -116.472197 -0.000002 0.000000 -18.979496 764.963483 -8.293124 -698.426512 -2.092384 -0.058111 -2.581196 1480.456289 26.615866 -0.144160 -0.000004 0.000002 -18.665009 -1144.700800 41.246502 -1095.013633 -0.000020 -0.000010 -18.566601 701.021438 -5.302126 -57.424863
66.119598 -26.057796 39.829395 3091.516723 -4.847941 9.288392 -0.153495 1.163109 7.852407 6.061509 -7.107222 6.657859 -0.000004 0.000003 3.343301 -3.896856 -2.864535 0.072039 0.000008 -0.000004 7.785502 -27.779197 -27.868384 6.328626 -0.000003 0.000006 2.173904 -8.466372 -12.257124 -7.589460 2.676299 -1.652397 4.938308 11.861736 -4.498958 7.375152 4.299002 -0.000004 -0.000004 -414.430197 -9.012056 238.882588 0.000005 -0.000004 -10.245108 -56.142051 721.825374 279.863559 -0.000014 -0.000003 -12.703301 1225.489370 -174.375167 552.237952 -2.534596 -1.686402 5.195007 9.439804 12.943478 23.634691 -4.144098 0.000006 -0.000002 174.420014 144.064918 -113.553070 0.000013 0.000007 -10.116501 -385.053554 -8.871446 -292.514381 0.000007 0.000001 -12.937803 -1099.095463 9.565637 10.377415 2.175601 0.064499 -2.662895 -979.380825 -31.254468 40.687348 -0.000001 -0.000000 -18.585791 353.313009 -179.793310 -116.451092 0.000001 -0.000003 -18.979496 765.505090 -8.276524 -697.935886 -2.092387 -0.058096 -2.581201 1480.185923 26.525099 -0.162534 -0.000001 0.000005 -18.665005 -1144.751617 41.257607 -1094.856484 -0.000003 -0.000011 -18.566597 701.059578 -5.291257 -57.420806
66.128403 -26.002796 39.813202 3091.668189 -4.794463 9.338787 -0.153492 1.163103 7.852408 6.118909 -7.049075 6.721518 0.000006 -0.000006 3.343309 -3.921987 -2.865894 0.072594 -0.000006 0.000004 7.785508 -27.789887 -27.923075 6.291712 0.000006 0.000002 2.173900 -8.475886 -12.165057 -7.678387 2.676282 -1.652394 4.938306 11.983441 -4.585825 7.303271 4.299000 -0.000002 -0.000005 -414.554124 -9.047415 238.854502 0.000004 0.000006 -10.245103 -56.047559 721.601508 279.964482 -0.000007 0.000003 -12.703300 1225.494725 -174.378090 552.217297 -2.534607 -1.686392 5.195004 9.424834 12.858350 23.625915 -4.144100 0.000006 0.000000 174.518710 143.943409 -113.603108 0.000001 -0.000001 -10.116501 -385.413122 -8.970537 -292.679944 -0.000001 -0.000003 -12.937796 -1098.718655 9.481420 10.388179 2.175602 0.064502 -2.662899 -979.298207 -31.174588 40.855531 -0.000003 -0.000001 -18.585796 353.062423 -179.763271 -116.354144 -0.000003 -0.000006 -18.979496 765.610166 -8.301369 -697.762017 -2.092384 -0.058100 -2.581203 1479.973258 26.476458 -0.259207 -0.000002 -0.000007 -18.665009 -1144.767135 41.210824 -1094.738895 -0.000006 -0.000012 -18.566595 701.068867 -5.289022 -57.443735
66.139793 -25.952396 39.800201 3091.796487 -4.727437 9.355345 -0.153501 1.163105 7.852403 6.305403 -6.988771 6.866951 0.000005 0.000005 3.343307 -3.996700 -2.963921 0.073117 0.000013 -0.000004 7.785505 -27.878845 -27.875447 6.251451 -0.000005 0.000005 2.173903 -8.470366 -12.092756 -7.746018 2.676305 -1.652405 4.938300 11.890075 -4.358511 7.353546 4.299005 -0.000006 -0.000006 -414.526312 -9.139450 238.465782 0.000008 0.000017 -10.245107 -56.000957 721.276227 280.006119 0.000003 0.000000 -12.703298 1225.509260 -174.378568 552.203528 -2.534589 -1.686402 5.195001 9.502648 13.019291 23.337327 -4.144113 -0.000002 -0.000002 174.068751 144.189146 -113.236327 0.000009 -0.000006 -10.116501 -385.352689 -8.974967 -292.937361 0.000003 -0.000004 -12.937803 -1098.813404 9.487608 10.512337 2.175588 0.064500 -2.662897 -979.471858 -31.233113 40.875438 -0.000002 -0.000003 -18.585789 353.473163 -180.285534 -116.217035 0.000002 -0.000009 -18.979500 765.174891 -8.101123 -698.229803 -2.092400 -0.058099 -2.581205 1479.568146 26.377253 -0.168339 -0.000001 -0.000006 -18.665007 -1144.708778 41.289860 -1094.521422 -0.000014 -0.000004 -18.566601 701.141813 -5.275418 -57.430758
66.144295 -25.903492 39.794392 3091.872767 -4.645843 9.387724 -0.153492 1.163097 7.852402 6.430738 -6.964199 6.928853 0.000000 -0.000010 3.343297 -4.014491 -3.093557 0.072088 -0.000010 0.000004 7.785496 -27.872382 -27.770130 6.319887 -0.000009 -0.000000 2.173908 -8.489276 -11.951997 -7.859984 2.676291 -1.652404 4.938299 11.907049 -4.206349 7.548247 4.298995 -0.000006 -0.000008 -414.588658 -9.016131 238.229868 -0.000003 0.000002 -10.245112 -55.916262 721.120007 280.069229 -0.000004 -0.000001 -12.703295 1225.543466 -174.378186 552.197954 -2.534607 -1.686399 5.194995 9.533681 13.212600 23.130238 -4.144104 0.000004 -0.000002 173.672832 144.541378 -112.986068 0.000002 0.000005 -10.116499 -385.038910 -8.715138 -293.023803 -0.000001 0.000003 -12.937801 -1099.126062 9.530364 10.588386 2.175588 0.064505 -2.662910 -979.604965 -31.310666 40.912932 0.000003 -0.000009 -18.585794 353.716345 -180.489989 -116.132955 0.000001 -0.000009 -18.979502 765.092929 -7.953031 -698.283789 -2.092388 -0.058095 -2.581210 1479.363677 26.276303 -0.189407 -0.000006 0.000003 -18.665014 -1144.732820 41.304777 -1094.357716 -0.000002 -0.000008 -18.566607 701.178969 -5.274083 -57.412583
66.152100 -25.853497 39.789196 3091.955822 -4.550747 9.391800 -0.153497 1.163106 7.852404 6.562456 -6.973039 7.071867 0.000002 0.000001 3.343305 -4.060331 -3.066688 0.074432 0.000010 0.000004 7.785501 -27.875465 -27.758734 6.233761 0.000000 0.000001 2.173909 -8.498502 -11.981471 -7.864340 2.676299 -1.652399 4.938306 11.882118 -4.129553 7.403802 4.299001 -0.000004 -0.000002 -414.615705 -9.072681 238.101979 0.000007 0.000011 -10.245115 -55.765629 721.019904 280.237525 -0.000009 0.000002 -12.703297 1225.588272 -174.564595 552.165279 -2.534587 -1.686397 5.194998 9.597005 13.323367 23.119822 -4.144100 0.000015 -0.000010 173.408230 144.834134 -112.982571 0.000005 0.000000 -10.116493 -384.953860 -8.837940 -293.196798 0.000003 0.000000 -12.937809 -1099.057433 9.460506 10.476491 2.175592 0.064504 -2.662899 -979.638514 -31.340866 40.979701 0.000005 -0.000003 -18.585789 353.568485 -180.104630 -116.162407 0.000008 -0.000010 -18.979496 765.601696 -7.985173 -697.841247 -2.092390 -0.058096 -2.581198 1478.966215 26.143591 -0.097809 -0.000002 0.000004 -18.665005 -1144.678944 41.351369 -1094.102103 -0.000007 -0.000004 -18.566597 701.244211 -5.266790 -57.405008
